# Blender 4.3.2
# www.blender.org
mtllib rock_tower.mtl
o Cylinder
v -0.594924 2.676489 -0.343480
v -1.231822 0.010653 -0.490598
v -0.594924 2.376143 0.403400
v -1.231822 0.010653 0.569323
v 0.000000 2.586893 0.746880
v 0.000000 0.023701 1.398357
v 0.594924 2.739093 0.403400
v 0.940873 0.010653 0.636751
v 0.594924 2.370730 -0.343480
v 0.866025 0.010653 -0.500000
v 0.000000 2.358548 -0.686959
v 0.000000 0.010653 -1.000000
v -0.866025 1.645298 -0.500000
v -0.866025 2.010653 0.559921
v 0.000000 2.010653 1.059921
v 0.866025 1.738151 -0.500000
v 0.000000 1.606771 -1.000000
v 0.866025 2.010653 0.559921
v -0.333420 5.880084 -0.254806
v -0.372193 5.826483 0.274806
v 0.099391 5.940418 0.489692
v 0.471584 5.940418 -0.214886
v 0.040052 5.801065 -0.434939
v 0.471584 5.940418 0.274806
v -0.594924 5.306666 -0.343480
v -0.594924 5.687549 0.403400
v 0.000000 5.694374 0.746880
v 0.594924 5.755179 -0.343480
v 0.000000 5.590107 -0.686959
v 0.594924 5.849727 0.403400
v -0.234144 6.393252 -0.214886
v -0.214909 6.393252 0.274806
v 0.085737 6.450915 0.454963
v 0.398679 6.488868 -0.233933
v 0.099391 6.435149 -0.360180
v 0.394083 6.516840 0.224354
v -1.231822 0.010653 0.569323
v 0.000000 2.010653 0.746880
v 0.000000 0.023701 1.398357
v 0.940873 0.010653 0.636751
v -0.866025 2.010653 0.559921
v 0.000000 2.010653 1.059921
v 0.866025 2.010653 0.559921
v 0.099391 5.940418 0.489692
v 0.000000 5.694374 0.746880
vn -0.0001 -1.0000 0.0038
vn -0.9798 0.1970 -0.0340
vn -0.4324 0.0463 -0.9005
vn -1.0000 -0.0000 -0.0000
vn 0.5000 -0.0000 -0.8660
vn 0.9991 0.0193 -0.0364
vn -0.9321 0.3619 -0.0130
vn -0.4864 0.4980 0.7180
vn 0.4385 0.3645 -0.8215
vn 0.9211 0.3669 -0.1302
vn 0.4315 0.3835 0.8165
vn -0.4243 0.2904 -0.8577
vn -0.4073 0.1464 -0.9015
vn -0.5000 -0.0000 -0.8660
vn 1.0000 -0.0000 -0.0000
vn -0.5000 -0.0000 0.8660
vn 0.5000 -0.0000 0.8660
vn -0.8199 0.5481 -0.1654
vn -0.3507 0.7929 0.4984
vn 0.1720 0.7010 -0.6921
vn 0.7445 0.6656 -0.0509
vn 0.2446 0.7380 0.6290
vn -0.4913 0.4990 -0.7139
vn -0.1762 0.9841 -0.0235
vn 0.9912 0.1326 0.0009
vn -0.4695 0.0909 0.8783
vn 0.5368 0.1106 0.8364
vn 0.4174 0.0475 -0.9075
vn -0.9728 0.2314 -0.0065
vn -0.5317 0.1219 0.8381
vn 0.5703 0.0957 0.8158
vt 0.717108 0.137172
vt 0.802891 0.008002
vt 0.918940 0.000000
vt 1.000000 0.104835
vt 0.958682 0.239455
vt 0.785954 0.239455
vt 0.004898 0.540456
vt 0.241189 0.550657
vt 0.194655 0.672487
vt -0.000000 0.663653
vt 0.208158 0.788112
vt 0.024709 0.816732
vt 0.382301 0.036710
vt 0.469061 0.001475
vt 0.470381 0.386671
vt 0.383349 0.342663
vt 0.241189 0.900690
vt 0.042640 0.931666
vt 0.227628 0.404988
vt 0.428419 0.412977
vt 0.455343 0.537402
vt 0.222359 0.537402
vt 0.166578 0.262797
vt 0.098969 0.198006
vt 0.203651 0.129039
vt 0.222359 0.258105
vt 0.126083 0.335919
vt 0.193878 0.370889
vt 0.072186 0.114124
vt -0.000000 0.079820
vt 0.019221 -0.000000
vt 0.129877 0.038989
vt 0.000000 0.460817
vt 0.061022 0.385579
vt 0.117419 0.458555
vt 0.019958 0.540456
vt 0.325352 0.580723
vt 0.351785 0.625816
vt 0.299758 0.655973
vt 0.271366 0.631585
vt 0.302264 0.000000
vt 0.303553 0.375908
vt 0.629025 0.043147
vt 0.715758 0.000000
vt 0.717108 0.393692
vt 0.630265 0.404988
vt 0.549055 0.025716
vt 0.550294 0.387191
vt 0.222359 0.001691
vt 0.223709 0.395383
vt 0.383268 0.687605
vt 0.415716 0.592339
vt 0.418881 0.684415
vt 0.360071 0.757755
vt 0.404377 0.760290
vt 0.269205 0.565828
vt 0.275297 0.540456
vt 0.350033 0.554036
vt 0.281010 0.841750
vt 0.332445 0.810019
vt 0.351466 0.821623
vt 0.280404 0.868002
vt 0.550087 0.439768
vt 0.534722 0.479500
vt 0.477714 0.479500
vt 0.455343 0.444761
vt 0.480678 0.407038
vt 0.534051 0.404988
vt 0.241189 0.796782
vt 0.277570 0.762747
vt 0.303766 0.734093
vt 0.317075 0.702925
vt 0.241189 0.615784
vt 0.663537 0.712519
vt 0.429078 0.713391
vt 0.418881 0.597514
vt 0.648406 0.540456
vt 0.650679 0.852749
vt 0.418881 0.829268
s 0
usemtl rock
f 2/1/1 12/2/1 10/3/1 8/4/1 6/5/1 4/6/1
f 4/7/2 14/8/2 13/9/2 2/10/2
f 2/10/3 13/9/3 17/11/3 12/12/3
f 1/13/4 3/14/4 26/15/4 25/16/4
f 12/12/5 17/11/5 16/17/5 10/18/5
f 10/19/6 16/20/6 18/21/6 8/22/6
f 3/23/7 1/24/7 13/25/7 14/26/7
f 5/27/8 3/23/8 14/26/8 15/28/8
f 11/29/9 9/30/9 16/31/9 17/32/9
f 9/33/10 7/34/10 18/35/10 16/36/10
f 7/34/11 5/27/11 15/28/11 18/35/11
f 1/24/12 11/29/12 17/32/12 13/25/12
f 23/37/13 19/38/13 31/39/13 35/40/13
f 11/41/14 1/13/14 25/16/14 29/42/14
f 7/43/15 9/44/15 28/45/15 30/46/15
f 3/14/16 5/47/16 27/48/16 26/15/16
f 5/47/17 7/43/17 30/46/17 27/48/17
f 9/49/5 11/41/5 29/42/5 28/50/5
f 20/51/18 19/38/18 25/52/18 26/53/18
f 21/54/19 20/51/19 26/53/19 27/55/19
f 23/37/20 22/56/20 28/57/20 29/58/20
f 22/59/21 24/60/21 30/61/21 28/62/21
f 24/60/22 21/54/22 27/55/22 30/61/22
f 19/38/23 23/37/23 29/58/23 25/52/23
f 35/63/24 31/64/24 32/65/24 33/66/24 36/67/24 34/68/24
f 24/60/25 22/59/25 34/69/25 36/70/25
f 20/51/26 21/54/26 33/71/26 32/72/26
f 21/54/27 24/60/27 36/70/27 33/71/27
f 22/56/28 23/37/28 35/40/28 34/73/28
f 19/38/29 20/51/29 32/72/29 31/39/29
f 39/74/30 42/75/30 41/76/30 37/77/30
f 40/78/31 43/79/31 42/75/31 39/74/31
l 42 38
l 38 45
l 45 44
